<?xml version="1.0" encoding="utf-8"?>
<!-- Generator: Adobe Illustrator 22.0.2, SVG Export Plug-In . SVG Version: 6.00 Build 0)  -->
<svg version="1.1" xmlns="http://www.w3.org/2000/svg" xmlns:xlink="http://www.w3.org/1999/xlink" x="0px" y="0px"
	 viewBox="0 0 121 79.5" style="enable-background:new 0 0 121 79.5;" xml:space="preserve">
<style type="text/css">
	.st0{display:none;}
	.st1{fill:#FFFFFF;}
</style>
<g id="图层_2" class="st0">
</g>
<g id="图层_1">
	<g>
		<path class="st1" d="M65.5,67.3c-2.2,0-4.1-0.1-4.3-2.6c-0.2-2.4,0-4.3,3-5c6.7-1.4,12.1-4.6,15.5-11.1
			c5.6-10.8-0.4-24.7-12.2-27.7c-1.1-0.3-2.2-0.5-3.2-0.9c-2.3-0.8-3.6-3.4-2.7-5.9c0.7-2.3,2.7-1.8,4.4-1.5
			c11.6,2.1,19.9,8.7,22.7,20C92.3,47,85.8,60.2,70.9,66C69.1,66.7,67.3,67.5,65.5,67.3z"/>
		<path class="st1" d="M116.9,66.7c-5.6-0.9-10.4-3.4-14.4-7.3c-5.3-5.2-8.1-11.7-8.4-19.1c-0.5-13.1,10.1-25.8,23.2-27.8
			c1.6-0.2,3.3-0.2,3.5,1.9c0.2,2.1,0.9,4.8-2.1,5.6c-3.1,0.9-5.9,2.2-8.5,4c-6.1,4.2-8.3,10.2-7.8,17.4c0.6,10,6.9,15.1,15.7,17.8
			c2.6,0.8,2.9,2.4,2.7,4.6C120.5,66.3,119,66.9,116.9,66.7z"/>
		<path class="st1" d="M28.1,39c0.1,14.7-9.9,26.2-23.8,28.1c-2,0.3-3.8,0.2-4.1-2.3c-0.3-2.2-0.6-4.4,2.8-5
			c7.1-1.2,12.6-4.8,15.9-11.5c5.5-11.1-1.9-26-14-28c-1.8-0.3-3.7-0.3-4.2-2.8c-0.8-4.2,0.5-5.5,4.7-4.6c9.6,2,16.7,7.2,20.8,16.2
			C27.6,32.4,28.2,35.8,28.1,39z"/>
		<path class="st1" d="M33,40.1c-0.2-13.5,9.4-24.8,22.7-27.6c1.6-0.3,3.3-0.3,3.8,1.6c0.5,1.9,0.9,4.1-1.2,5.5
			c-0.7,0.4-1.5,0.6-2.3,0.8C41,24.6,35.7,41,45.5,53c2.6,3.1,6,5.1,10,6.1c1.5,0.4,3.4,0.5,4,2.4c0.5,1.6,0.7,3.3-0.4,4.7
			c-1.1,1.5-2.7,0.9-4.2,0.6C44.9,64.4,38,58.7,34.5,49C33.5,46,32.7,42.9,33,40.1z"/>
		<path class="st1" d="M65.8,0.1c8.1,1,15.6,3.7,21.8,9.2c0.5,0.4,0.9,0.8,1.3,1.2c1.8,1.9,3.4,2.1,5.6,0.1c5.3-5,11.6-8.2,18.7-9.9
			c1-0.2,2-0.5,3-0.6c2.1,0,4.5-0.7,4.7,2.7c0.2,3.7-0.4,4.4-3.9,5.2c-9.1,1.9-16.9,5.7-21.9,14.1c-3,5-3.1,4.9-6.3,0
			C83.2,13.6,75.2,8.7,65,7.6c-3-0.3-4.1-1.6-3.9-4.5C61.4,0,63.6,0,65.8,0.1z"/>
		<path class="st1" d="M67.2,79.4c-5.1,0.1-6.1-0.7-6.1-3.8c0-2,0.9-3.2,3-3.6c2.8-0.5,5.7-0.9,8.3-1.8c7.5-2.7,13.5-7.4,17.6-14.3
			c1.5-2.5,2.7-2.5,4.1,0c5.3,8.9,13.1,14.2,23.3,16c3.3,0.6,3.9,1.6,3.4,4.8c-0.3,1.8-1.2,2.6-3.1,2.6c-6.2,0-11.6-2.7-16.9-5.5
			c-2.5-1.3-4.9-2.9-6.8-5.1c-1.5-1.7-2.5-1.7-4.2-0.1C83.2,74.8,75.3,78.5,67.2,79.4z"/>
		<path class="st1" d="M55.8,79.5c-7.4-0.7-14.2-3.6-20.1-8.6c-4.9-4-4.8-4.1-9.5-0.3c-6.5,5.2-13.8,8.5-22.2,8.9
			C1.8,79.6,0,79.4,0,76.5c0-2.5,0.3-4.1,3.5-4.5c11.1-1.2,19.5-7,25.4-16.4c1.6-2.5,2.1-2.5,3.6,0.1C37.4,64,44.4,69.4,54,71.2
			c5,1,5.9,1.8,5.8,4.8C59.7,78.6,58.8,79.4,55.8,79.5z"/>
		<path class="st1" d="M0.6,4.1c0-3.3,1.2-4.4,4.5-3.8c7.8,1.3,15,3.9,21.3,9.2c5.1,4.3,3.1,4.4,8.5,0c5.6-4.6,11.8-7.8,18.9-9.2
			c4.5-0.9,6.3,0.5,6.1,4.2c-0.2,2.2-1.5,3-3.4,3.3c-7.6,1.2-14.1,4.4-19.4,10c-1.7,1.9-3.2,3.9-4.6,6.1c-1.3,2.2-2.5,2.2-3.8,0
			c-5.8-9.6-14.3-15-25.3-16.5C1.1,7.1,0.4,5.9,0.6,4.1z"/>
	</g>
</g>
</svg>
